HIERARCHY
ROOT hip
{
  OFFSET 0.0 0.0 0.0
  CHANNELS 6 Xposition Yposition Zposition Zrotation Yrotation Xrotation
  JOINT torso
  {
    OFFSET 0.0 0.0 0.0
    CHANNELS 3 Zrotation Xrotation Yrotation
    JOINT neck
    {
      OFFSET -31.42098999999993 328.8025209999999 74.3554680000002
      CHANNELS 3 Zrotation Xrotation Yrotation
      JOINT head
      {
        OFFSET 3.3519900000001144 303.81732099999994 206.53942900000015
        CHANNELS 3 Zrotation Xrotation Yrotation
        End Site
        {
          OFFSET 0.0 0.0 0.0
        }
      }
    }
    JOINT left_collar
    {
      OFFSET -31.42098999999993 328.8025209999999 74.3554680000002
      CHANNELS 3 Zrotation Xrotation Yrotation
      JOINT left_upper_arm
      {
        OFFSET -124.490479 -8.162841999999841 8.226441000000023
        CHANNELS 3 Zrotation Xrotation Yrotation
        JOINT left_forearm
        {
          OFFSET -253.595764 -1.5758060000000569 105.0729980000001
          CHANNELS 3 Zrotation Xrotation Yrotation
          JOINT left_hand
          {
            OFFSET -269.48803699999996 0.1478270000000066 -55.346191999999974
            CHANNELS 3 Zrotation Xrotation Yrotation
            End Site
            {
              OFFSET 0.0 0.0 0.0
            }
          }
        }
      }
    }
    JOINT right_collar
    {
      OFFSET -31.42098999999993 328.8025209999999 74.3554680000002
      CHANNELS 3 Zrotation Xrotation Yrotation
      JOINT right_upper_arm
      {
        OFFSET 162.02484099999998 0.46441600000002836 2.2303470000001653
        CHANNELS 3 Zrotation Xrotation Yrotation
        JOINT right_forearm
        {
          OFFSET 240.01246700000004 -25.835875999999985 121.34179699999959
          CHANNELS 3 Zrotation Xrotation Yrotation
          JOINT right_hand
          {
            OFFSET 252.48539699999992 18.910399999999868 -67.53466800000001
            CHANNELS 3 Zrotation Xrotation Yrotation
            End Site
            {
              OFFSET 0.0 0.0 0.0
            }
          }
        }
      }
    }
  }
}
MOTION
Frames: 13
Frame Time: 0.01
-180.50769790923883 211.91123544276522 1492.4685657414348 -0.5057751137023523 -1.0145463657953768 -48.21231141393087 0.9756178157640925 -0.4069357765852533 -0.2629864649186884 -6.15692339093482 -8.649601586514965 4.519161846217399 0.0 0.0 0.0 7.038725678849457 -0.9486156604307029 11.11321980159801 34.217639332257995 17.654531179363563 -8.302932333728691 33.545920358878924 2.038222553104024 -30.020725668041017 0.0 0.0 0.0 3.002195839646817 -0.25900552247160663 7.468153158411732 -39.12077137537178 13.915371470453124 -13.53579943859062 -56.156935485786235 5.050299026303813 45.762884486097114 0.0 0.0 0.0
-180.65716288261024 211.87718526669192 1492.4115524499712 -0.46632125674038777 -1.0170104770517623 -48.23533337313701 0.9671922383600805 -0.4420642873663511 -0.2646843436467639 -6.208788989018081 -8.6013947782075 4.554759083013337 0.0 0.0 0.0 7.043528082737513 -0.9554627759389965 11.16574477269867 34.19461956977514 17.636886460777568 -8.289256921633749 33.605588171508785 2.0727780420942503 -30.122203264114823 0.0 0.0 0.0 3.0169662710715266 -0.2622794668841306 7.53977226453819 -39.08923841164694 13.876967075521057 -13.583993717743509 -56.17398907417591 5.081787456320472 45.82566119744864 0.0 0.0 0.0
-180.80819605533213 211.84125915068776 1492.35224048509 -0.42696603302629776 -1.0196579057485204 -48.25788357131602 0.9589581003994263 -0.4770050655879079 -0.2664015271027025 -6.260254361022726 -8.553914652981687 4.590073976803482 0.0 0.0 0.0 7.0484120090239735 -0.9622929402580379 11.218079291920164 34.17184660765778 17.619348805512217 -8.275491337706033 33.66632317061799 2.1081774392738635 -30.22583520843761 0.0 0.0 0.0 3.031742904733869 -0.2655609114559665 7.610991210545179 -39.05696731550266 13.838551665965785 -13.631672955507417 -56.19072291024391 5.11287651379343 45.887621632454916 0.0 0.0 0.0
-180.96095462918964 211.8030232920892 1492.2886835130826 -0.3877193724204702 -1.0223475676640694 -48.28038275522603 0.9508090404813543 -0.5116104282494349 -0.2680984248639702 -6.311015697602383 -8.508053842066627 4.624921624528645 0.0 0.0 0.0 7.053446577729286 -0.9691306733320755 11.270396910170275 34.14948106938083 17.601928212921827 -8.261436079374773 33.728490920821244 2.144452947924479 -30.331621786199417 0.0 0.0 0.0 3.0465027186045126 -0.26884705875696074 7.681783407954096 -39.02354964146265 13.800219617012706 -13.67830855095983 -56.20674300758019 5.143265591388936 45.94825680111743 0.0 0.0 0.0
-181.11568238912858 211.76205173338593 1492.21882122561 -0.34858699547015076 -1.0249645866427872 -48.30321652740874 0.9426606871497629 -0.5457173612120224 -0.2697388703182896 -6.360764829173487 -8.464724859968054 4.659115747036291 0.0 0.0 0.0 7.058698028182803 -0.9759954977966596 11.322831507452978 34.12766742734944 17.584627143924273 -8.246894398790621 33.792484171146654 2.181630207293452 -30.439529982775007 0.0 0.0 0.0 3.061211560435597 -0.27213273599324467 7.752075431183015 -38.98857580201228 13.762068129959315 -13.7233652280743 -56.221694467271334 5.17267916614297 46.00710125240857 0.0 0.0 0.0
-181.27269546897287 211.7179452803236 1492.1405306623853 -0.3095748090378393 -1.0274276952374515 -48.32671403965492 0.9344575659861606 -0.5791451008921108 -0.27129150882440667 -6.409190240014634 -8.424839945949133 4.692468625230383 0.0 0.0 0.0 7.064225679170529 -0.9828992224699683 11.37545720045802 34.10653128569159 17.567441736371748 -8.231679306116982 33.85870541869172 2.2197213407871015 -30.549474307639585 0.0 0.0 0.0 3.0758214146551532 -0.27540959769540513 7.82173002495657 -38.95165250446018 13.72420057453643 -13.766308981533896 -56.235272618204554 5.200873744934886 46.06374345614768 0.0 0.0 0.0
-181.43236585458123 211.67035024994505 1492.0516780768621 -0.270691905676332 -1.029693632876154 -48.351133020266325 0.926177284745287 -0.6116948895778946 -0.2727307922707681 -6.45597951526219 -8.389290661726275 4.724792001325439 0.0 0.0 0.0 7.070078943079146 -0.9898440347179385 11.428274439408803 34.086176175724994 17.5503628012772 -8.215620713979497 33.92754903610334 2.2587178874089306 -30.661297985192405 0.0 0.0 0.0 3.0902689314555283 -0.27866560580604793 7.8905355753754245 -38.91241947031522 13.686729075968636 -13.806615753299468 -56.247231461504015 5.227643778223868 46.1178347969255 0.0 0.0 0.0
-181.59510352758394 211.6189763215271 1491.9501694502933 -0.23195186884743899 -1.0317582014662612 -48.376652125664044 0.9178316645559119 -0.6431521066896903 -0.2740375154584431 -6.500823436457527 -8.35892779685175 4.755899122612899 0.0 0.0 0.0 7.076295561240705 -0.996821536946077 11.481203278977052 34.06667995429819 17.533376519317375 -8.19857237655218 33.999383642773715 2.2985839269662924 -30.774755450147637 0.0 0.0 0.0 3.1044753796902045 -0.2818848449320117 7.9582030677440585 -38.87056472792333 13.649776100338354 -13.843780762010544 -56.25738887259805 5.252826307560753 46.169096955041915 0.0 0.0 0.0
-181.76133824919063 211.56361279572067 1491.8339978606223 -0.19337229217864857 -1.0336539436763537 -48.403370953185714 0.9094647753587063 -0.6732907340545178 -0.2751988710455113 -6.543421777345202 -8.334542081590284 4.785607989232382 0.0 0.0 0.0 7.082901046742023 -1.0038127668586903 11.534084097267153 34.04809110739612 17.516464807655797 -8.180418107956003 34.07453534783852 2.3392497255988465 -30.889497119262373 0.0 0.0 0.0 3.1183480563388057 -0.28504770173419147 8.024370884738666 -38.8258378324955 13.61347487241147 -13.87732831884563 -56.265628127630066 5.276304141786971 46.217327471869446 0.0 0.0 0.0
-181.93150201521513 211.50414260697255 1491.7012860773696 -0.15497264073608136 -1.0354447097882302 -48.43131737643001 0.9011481340966976 -0.70187987834826 -0.27620804578946523 -6.5834906644851126 -8.316846150055277 4.813745734981334 0.0 0.0 0.0 7.089909152017008 -1.0107891463429985 11.586685333831717 34.03042542438528 17.499605380638005 -8.161076673815636 34.15327241798364 2.3806062364018348 -31.005057414058978 0.0 0.0 0.0 3.131783057570543 -0.2881314055854615 8.088617092997152 -38.77806046738458 13.577968556754318 -13.906821868982746 -56.271895488174835 5.298007396571451 46.262403312959755 0.0 0.0 0.0
-182.10601318099927 211.44055347511457 1491.550322961444 -0.1167707722624049 -1.037217646822446 -48.460461207055594 0.8929735879479979 -0.7286918720696929 -0.27706342316210764 -6.620771170429373 -8.306458135897907 4.840153930570139 0.0 0.0 0.0 7.097323052464891 -1.017714217299561 11.638717174214863 34.01366357495856 17.482771574957646 -8.140504779528987 34.23579183276666 2.422500782776785 -31.120846953883103 0.0 0.0 0.0 3.1446691988997117 -0.2911108943619076 8.150478163285158 -38.72713401783684 13.54340824041669 -13.931873907110532 -56.276193799574216 5.317913283139216 46.30428225515067 0.0 0.0 0.0
-182.28526316823957 211.37294563014038 1491.3795924871356 -0.07877855972758956 -1.0390733444396043 -48.49073260835133 0.8850445902963289 -0.7535113341384077 -0.277767489050204 -6.655038626790606 -8.303887221434637 4.86469447022299 0.0 0.0 0.0 7.105136872313745 -1.0245459525773686 11.689849583949194 33.99775007657512 17.465932043876723 -8.118697732794699 34.32220809769497 2.464734225338168 -31.236149709780182 0.0 0.0 0.0 3.1568927736834773 -0.2939599374399694 8.209472437976673 -38.67304387787168 13.509949864020772 -13.952155341646408 -56.27857232129402 5.3360440940991065 46.34300193936428 0.0 0.0 0.0
-182.4696065477586 211.30153561727624 1491.1877944813123 -0.04099710557809679 -1.0411149827041113 -48.522043263715275 0.8774666685233001 -0.7761445109997183 -0.2783255559350152 -6.6861120113714225 -8.30952140310745 4.887255606896931 0.0 0.0 0.0 7.113337178419908 -1.0312393850816002 11.739732755194899 33.98259400458846 17.449050443999766 -8.095687603108278 34.41254460704892 2.507059869718208 -31.350125716923177 0.0 0.0 0.0 3.168342768648511 -0.2966524218700323 8.26512619824521 -38.61586043311677 13.47775034157372 -13.967403840842959 -56.27911328339001 5.35246340916769 46.378676466991976 0.0 0.0 0.0
